<?xml version="1.0" encoding="UTF-8" standalone="no"?>
<svg
   viewBox="0 0 36 36"
   xml:space="preserve"
   version="1.1"
   id="svg8"
   sodipodi:docname="withdraw.svg"
   inkscape:version="1.1.1 (3bf5ae0d25, 2021-09-20)"
   xmlns:inkscape="http://www.inkscape.org/namespaces/inkscape"
   xmlns:sodipodi="http://sodipodi.sourceforge.net/DTD/sodipodi-0.dtd"
   xmlns="http://www.w3.org/2000/svg"
   xmlns:svg="http://www.w3.org/2000/svg"><defs
     id="defs12" /><sodipodi:namedview
     id="namedview10"
     pagecolor="#ffffff"
     bordercolor="#666666"
     borderopacity="1.0"
     inkscape:pageshadow="2"
     inkscape:pageopacity="0.0"
     inkscape:pagecheckerboard="0"
     showgrid="false"
     inkscape:zoom="11.555556"
     inkscape:cx="15.014423"
     inkscape:cy="22.110577"
     inkscape:window-width="1920"
     inkscape:window-height="1017"
     inkscape:window-x="-8"
     inkscape:window-y="-8"
     inkscape:window-maximized="1"
     inkscape:current-layer="svg8" /><path
     fill="#EF9645"
     d="M2.965 15.5a2.5 2.5 0 0 0 2.5 2.5h.005L.465 20.5a2.5 2.5 0 0 0 2.5 2.5H4.25l-1.535 2.5a2.5 2.5 0 0 0 2.5 2.5H8.75L18 29V15.458L2.965 15.5z"
     id="path2" /><path
     fill="#FFDC5D"
     d="M16.219 4.625c-.611 1.381.208 3.354 2.188 4.75 1.3.917 3.151 1.187 3.344 2.391.073.46-.313 1.234-1.397 1.234H4.5s-2 0-2 2 2 2 2 2h11.633c-.029 0-.064 1-.082 1H2s-2 0-2 2 2 2 2 2h14.053c.017 0 .041 1 .069 1H4.25s-2 0-2 2 2 2 2 2h12.638c.118 0 .251 1 .398 1H8.75s-2 0-2 2 2 2 2 2H24c6.627 0 12-5.373 12-12 0-4.775-2.598-8.06-5.292-9.896C28.423 8.547 26.051 8.096 25.334 8c0 0-1.479-.123-2.865-1.156a57.846 57.846 0 0 1-3.866-3.125c-.359-.317-1.707-.625-2.384.906z"
     id="path4" /><path
     fill="#EF9645"
     d="M21.471 12.561c-.266.297-.552.372-.808.417.259 1.892.789 4.457 2.715 6.427 2.499 2.556 5.2 2.992 7.007 2.971 1.457-.017 2.147-.812-.012-1.045-2.706-.292-8.063-2.254-8.58-8.784a78.15 78.15 0 0 1-.035-.591s-.06.352-.287.605z"
     id="path6" /><g
     id="g856"
     transform="matrix(0.36626303,0.21100359,-0.21100359,0.36626303,10.515927,8.7914197)"><path
       fill="#5c913b"
       d="m 2,11 c -2,0 -2,2 -2,2 v 21 c 0,0 0,2 2,2 h 32 c 2,0 2,-2 2,-2 V 13 c 0,0 0,-2 -2,-2 z"
       id="path829" /><path
       fill="#a7d28b"
       d="M 2,6 C 0,6 0,8 0,8 v 20 c 0,0 0,2 2,2 h 32 c 2,0 2,-2 2,-2 V 8 c 0,0 0,-2 -2,-2 z"
       id="path831" /><circle
       fill="#77b255"
       cx="25"
       cy="18"
       r="6.5"
       id="circle833" /><path
       fill="#5c913b"
       d="M 33,28.5 H 3 C 2.173,28.5 1.5,27.827 1.5,27 V 9 C 1.5,8.173 2.173,7.5 3,7.5 h 30 c 0.827,0 1.5,0.673 1.5,1.5 v 18 c 0,0.827 -0.673,1.5 -1.5,1.5 z M 3,8.5 C 2.725,8.5 2.5,8.724 2.5,9 v 18 c 0,0.275 0.225,0.5 0.5,0.5 h 30 c 0.275,0 0.5,-0.225 0.5,-0.5 V 9 C 33.5,8.724 33.275,8.5 33,8.5 Z"
       id="path835" /><path
       fill="#ffe8b6"
       d="m 14,6 h 8 v 24.062 h -8 z"
       id="path837" /><path
       fill="#ffac33"
       d="m 14,30 h 8 v 6 h -8 z"
       id="path839" /><path
       fill="#5c913b"
       d="m 11.81,20.023 c 0,-2.979 -5.493,-2.785 -5.493,-4.584 0,-0.871 0.833,-1.296 1.799,-1.296 1.625,0 1.914,1.044 2.65,1.044 0.521,0 0.772,-0.328 0.772,-0.696 0,-0.856 -1.296,-1.502 -2.539,-1.726 V 11.94 c 0,-0.515 -0.417,-0.932 -0.932,-0.932 -0.515,0 -0.932,0.418 -0.932,0.932 v 0.853 c -1.354,0.31 -2.521,1.25 -2.521,2.781 0,2.862 5.493,2.746 5.493,4.758 0,0.695 -0.754,1.391 -1.992,1.391 -1.857,0 -2.476,-1.257 -3.229,-1.257 -0.368,0 -0.696,0.309 -0.696,0.775 0,0.741 1.24,1.631 2.947,1.881 l -10e-4,0.004 v 0.934 c 0,0.514 0.418,0.932 0.933,0.932 C 8.583,24.991 9,24.573 9,24.06 v -0.934 c 0,-0.01 -0.005,-0.019 -0.006,-0.028 1.535,-0.287 2.816,-1.286 2.816,-3.075 z"
       id="path841" /></g></svg>
