<?xml version="1.0" encoding="UTF-8" standalone="no"?>
<svg
   viewBox="0 0 45.060646 42.582107"
   version="1.1"
   id="svg26"
   sodipodi:docname="account.svg"
   inkscape:version="1.1.1 (3bf5ae0d25, 2021-09-20)"
   width="45.060646"
   height="42.582108"
   xmlns:inkscape="http://www.inkscape.org/namespaces/inkscape"
   xmlns:sodipodi="http://sodipodi.sourceforge.net/DTD/sodipodi-0.dtd"
   xmlns="http://www.w3.org/2000/svg"
   xmlns:svg="http://www.w3.org/2000/svg">
  <defs
     id="defs30">
    <filter
       style="color-interpolation-filters:sRGB"
       inkscape:label="Colorize"
       id="filter2612"
       x="0"
       y="0"
       width="1"
       height="1">
      <feComposite
         in2="SourceGraphic"
         operator="arithmetic"
         k1="0.628743"
         k2="0.329341"
         result="composite1"
         id="feComposite2598"
         k3="0"
         k4="0" />
      <feColorMatrix
         in="composite1"
         values="1"
         type="saturate"
         result="colormatrix1"
         id="feColorMatrix2600" />
      <feFlood
         flood-opacity="1"
         flood-color="rgb(153,188,224)"
         result="flood1"
         id="feFlood2602" />
      <feBlend
         in="flood1"
         in2="colormatrix1"
         mode="multiply"
         result="blend1"
         id="feBlend2604" />
      <feBlend
         in2="blend1"
         mode="screen"
         result="blend2"
         id="feBlend2606" />
      <feColorMatrix
         in="blend2"
         values="1"
         type="saturate"
         result="colormatrix2"
         id="feColorMatrix2608" />
      <feComposite
         in="colormatrix2"
         in2="SourceGraphic"
         operator="in"
         result="fbSourceGraphic"
         id="feComposite2610" />
      <feColorMatrix
         result="fbSourceGraphicAlpha"
         in="fbSourceGraphic"
         values="0 0 0 -1 0 0 0 0 -1 0 0 0 0 -1 0 0 0 0 1 0"
         id="feColorMatrix2632" />
      <feComposite
         in2="fbSourceGraphic"
         id="feComposite2634"
         operator="arithmetic"
         k1="0.628743"
         k2="0.329341"
         result="composite1"
         in="fbSourceGraphic"
         k3="0"
         k4="0" />
      <feColorMatrix
         id="feColorMatrix2636"
         in="composite1"
         values="1"
         type="saturate"
         result="colormatrix1" />
      <feFlood
         id="feFlood2638"
         flood-opacity="1"
         flood-color="rgb(153,188,224)"
         result="flood1" />
      <feBlend
         in2="colormatrix1"
         id="feBlend2640"
         in="flood1"
         mode="multiply"
         result="blend1" />
      <feBlend
         in2="blend1"
         id="feBlend2642"
         mode="screen"
         result="blend2" />
      <feColorMatrix
         id="feColorMatrix2644"
         in="blend2"
         values="1"
         type="saturate"
         result="colormatrix2" />
      <feComposite
         in2="fbSourceGraphic"
         id="feComposite2646"
         in="colormatrix2"
         operator="in"
         result="composite2" />
    </filter>
  </defs>
  <sodipodi:namedview
     id="namedview28"
     pagecolor="#ffffff"
     bordercolor="#666666"
     borderopacity="1.0"
     inkscape:pageshadow="2"
     inkscape:pageopacity="0.0"
     inkscape:pagecheckerboard="0"
     showgrid="false"
     inkscape:zoom="11.555556"
     inkscape:cx="15.360577"
     inkscape:cy="29.033654"
     inkscape:window-width="1920"
     inkscape:window-height="1017"
     inkscape:window-x="-8"
     inkscape:window-y="-8"
     inkscape:window-maximized="1"
     inkscape:current-layer="svg26"
     fit-margin-top="0"
     fit-margin-left="0"
     fit-margin-right="0"
     fit-margin-bottom="0" />
  <path
     fill="#66757f"
     d="M 3,16 H 33 V 34 H 3 Z"
     id="path2" />
  <path
     fill="#ccd6dd"
     d="m 2,34 h 32 c 1.104,0 2,0.896 2,2 H 0 c 0,-1.104 0.896,-2 2,-2 z"
     id="path4" />
  <path
     fill="#292f33"
     d="m 18,23 c -1.657,0 -3,1.343 -3,3 v 6 h 6 v -6 c 0,-1.657 -1.343,-3 -3,-3 z"
     id="path6" />
  <path
     fill="#ccd6dd"
     d="M 3,21 H 7 V 32 H 3 Z m 6,0 h 4 V 32 H 9 Z m 20,0 h 4 v 11 h -4 z m -6,0 h 4 v 11 h -4 z"
     id="path8" />
  <path
     fill="#aab8c2"
     d="m 2,32 h 32 v 2 H 2 Z"
     id="path10" />
  <path
     fill="#66757f"
     d="M 36,11 18,0 0,11 Z"
     id="path12" />
  <path
     fill="#ccd6dd"
     d="M 18,2.4 2,12 v 4 h 32 v -4 z"
     id="path14" />
  <path
     fill="#8899a6"
     d="m 3,19 h 4 v 2 H 3 Z m 6,0 h 4 v 2 H 9 Z m 14,0 h 4 v 2 h -4 z m 6,0 h 4 v 2 h -4 z"
     id="path16" />
  <path
     fill="#ccd6dd"
     d="m 1,12 h 34 v 5 H 1 Z"
     id="path18" />
  <path
     fill="#aab8c2"
     d="m 36,12 c 0,0.552 -0.447,1 -1,1 H 1 C 0.448,13 0,12.552 0,12 v -1 c 0,-0.552 0.448,-1 1,-1 h 34 c 0.553,0 1,0.448 1,1 z m 0,6 c 0,0.552 -0.447,1 -1,1 H 1 C 0.448,19 0,18.552 0,18 v -1 c 0,-0.552 0.448,-1 1,-1 h 34 c 0.553,0 1,0.448 1,1 z"
     id="path20" />
  <path
     fill="#e1e8ed"
     d="m 13,32 h 10 v 2 H 13 Z"
     id="path22" />
  <path
     fill="#f5f8fa"
     d="m 11,34 h 14 v 2 H 11 Z"
     id="path24" />
  <g
     id="g862"
     transform="matrix(0.59205378,0,0,0.59205378,23.745589,21.268173)"
     style="filter:url(#filter2612)">
    <path
       fill="#ccd6dd"
       d="m 28,32 c 0,2.209 -1.791,4 -4,4 H 4 C 1.791,36 0,34.125 0,28 V 4 C 0,1.791 1.791,0 4,0 h 20 c 2.209,0 4,1.791 4,4 z"
       id="path847" />
    <path
       fill="#e1e8ed"
       d="M 31,36 H 4 c 4,0 4,-8 4,-8 0,-2.209 1.791,-4 4,-4 h 20 c 2.209,0 4,2 4,4 0,0 0.25,8 -5,8 z"
       id="path849" />
    <path
       fill="#99aab5"
       d="m 24,7 c 0,0.552 -0.447,1 -1,1 H 5 C 4.448,8 4,7.552 4,7 4,6.448 4.448,6 5,6 h 18 c 0.553,0 1,0.448 1,1 z m 0,4 c 0,0.552 -0.447,1 -1,1 H 5 C 4.448,12 4,11.552 4,11 4,10.448 4.448,10 5,10 h 18 c 0.553,0 1,0.448 1,1 z m 0,4 c 0,0.552 -0.447,1 -1,1 H 5 C 4.448,16 4,15.552 4,15 4,14.448 4.448,14 5,14 h 18 c 0.553,0 1,0.448 1,1 z m 0,4 c 0,0.553 -0.447,1 -1,1 H 5 C 4.448,20 4,19.553 4,19 4,18.447 4.448,18 5,18 h 18 c 0.553,0 1,0.447 1,1 z"
       id="path851" />
  </g>
</svg>
