<?xml version="1.0" encoding="UTF-8" standalone="no"?>
<!-- Created with Inkscape (http://www.inkscape.org/) -->

<svg
   width="50.591225mm"
   height="9.8030195mm"
   viewBox="0 0 50.591225 9.8030195"
   version="1.1"
   id="svg5"
   inkscape:version="1.1.1 (3bf5ae0d25, 2021-09-20)"
   sodipodi:docname="logo.svg"
   xmlns:inkscape="http://www.inkscape.org/namespaces/inkscape"
   xmlns:sodipodi="http://sodipodi.sourceforge.net/DTD/sodipodi-0.dtd"
   xmlns="http://www.w3.org/2000/svg"
   xmlns:svg="http://www.w3.org/2000/svg">
  <sodipodi:namedview
     id="namedview7"
     pagecolor="#ffffff"
     bordercolor="#666666"
     borderopacity="1.0"
     inkscape:pageshadow="2"
     inkscape:pageopacity="0.0"
     inkscape:pagecheckerboard="0"
     inkscape:document-units="mm"
     showgrid="false"
     inkscape:snap-page="false"
     fit-margin-top="0"
     fit-margin-left="0"
     fit-margin-right="0"
     fit-margin-bottom="0"
     inkscape:zoom="2.096401"
     inkscape:cx="59.387494"
     inkscape:cy="-33.629063"
     inkscape:window-width="1920"
     inkscape:window-height="1017"
     inkscape:window-x="-8"
     inkscape:window-y="-8"
     inkscape:window-maximized="1"
     inkscape:current-layer="layer1" />
  <defs
     id="defs2">
    <rect
       x="107.93459"
       y="449.27771"
       width="648.95667"
       height="277.93155"
       id="rect2300" />
  </defs>
  <g
     inkscape:label="Layer 1"
     inkscape:groupmode="layer"
     id="layer1"
     transform="translate(-29.333093,-120.82852)">
    <text
       xml:space="preserve"
       transform="scale(0.26458333)"
       id="text2298"
       style="font-style:normal;font-weight:normal;font-size:40px;line-height:1.25;font-family:sans-serif;white-space:pre;shape-inside:url(#rect2300);fill:#000000;fill-opacity:1;stroke:none;stroke-width:1.00157;stroke-miterlimit:4;stroke-dasharray:none"><tspan
         x="107.93555"
         y="485.30752"
         id="tspan27425"><tspan
           style="font-family:Arial;-inkscape-font-specification:'Arial, Normal'"
           id="tspan27423">Ling   Atlas</tspan></tspan></text>
    <g
       id="g17969">
      <path
         d="m 48.977091,125.66724 a 2.8265886,2.8265886 0 1 1 5.653177,0 2.8265886,2.8265886 0 0 1 -5.653177,0 m 2.649927,-2.44606 c -0.236727,0.0721 -0.471687,0.28972 -0.666722,0.65541 a 2.8265886,2.8265886 0 0 0 -0.165355,0.37735 h 0.832077 z m -1.204834,1.03276 a 3.2859093,3.2859093 0 0 1 0.226128,-0.54376 2.4732651,2.4732651 0 0 1 0.210934,-0.32965 2.4838648,2.4838648 0 0 0 -1.08541,0.87341 z m -0.205634,1.23664 c 0.0106,-0.30987 0.04876,-0.60701 0.110237,-0.88331 h -0.758232 a 2.4732651,2.4732651 0 0 0 -0.231781,0.88331 z m 0.4731,-0.88331 a 4.4165447,4.4165447 0 0 0 -0.119423,0.88331 h 1.056791 v -0.88331 z m 1.290691,0 v 0.88331 h 1.056438 a 4.4165447,4.4165447 0 0 0 -0.11907,-0.88331 z m -1.409761,1.23663 a 4.4165447,4.4165447 0 0 0 0.11907,0.88331 h 0.937368 v -0.88331 z m 1.409761,0 v 0.88331 h 0.937368 c 0.06607,-0.27029 0.108117,-0.56814 0.119423,-0.88331 z m -1.1854,1.23663 q 0.07349,0.20493 0.165355,0.37735 c 0.195035,0.36569 0.430348,0.58299 0.666722,0.65542 v -1.03277 z m 0.0643,0.87342 a 2.4732651,2.4732651 0 0 1 -0.210934,-0.32965 3.2859093,3.2859093 0 0 1 -0.226128,-0.54377 h -0.648348 a 2.4732651,2.4732651 0 0 0 1.08541,0.87342 m -0.532459,-1.22674 A 4.840533,4.840533 0 0 1 50.21655,125.8439 h -0.879776 c 0.02191,0.31446 0.102818,0.61231 0.231781,0.88331 z m 2.421327,1.22674 a 2.4732651,2.4732651 0 0 0 1.08541,-0.87342 H 53.18517 a 3.2859093,3.2859093 0 0 1 -0.226127,0.54377 2.4732651,2.4732651 0 0 1 -0.210934,0.32965 m -0.767773,-0.87342 v 1.03277 c 0.236727,-0.0721 0.471687,-0.28973 0.666722,-0.65542 q 0.09186,-0.17207 0.165355,-0.37735 z m 1.300231,-0.35332 H 54.0388 c 0.128963,-0.271 0.209874,-0.56885 0.23178,-0.88331 h -0.879776 a 4.840533,4.840533 0 0 1 -0.110237,0.88331 m 0.990013,-1.23663 a 2.4732651,2.4732651 0 0 0 -0.23178,-0.88331 h -0.758233 c 0.06148,0.2763 0.09964,0.57344 0.110237,0.88331 z m -1.311537,-1.7804 c 0.08727,0.16394 0.163235,0.34626 0.226127,0.54376 h 0.648349 a 2.4732651,2.4732651 0 0 0 -1.08541,-0.87341 c 0.07702,0.10034 0.147689,0.21129 0.210934,0.32965 m -0.14663,0.54376 a 2.8265886,2.8265886 0 0 0 -0.165355,-0.37735 c -0.195035,-0.36569 -0.429995,-0.58298 -0.666722,-0.65541 v 1.03276 z"
         id="path6872"
         style="fill:#000000;stroke-width:0.353;stroke-miterlimit:4;stroke-dasharray:none" />
    </g>
  </g>
</svg>
